<svg width="47" height="37" viewBox="0 0 47 37" fill="none" xmlns="http://www.w3.org/2000/svg">
<g id="mastercard_logo">
<path id="Vector" d="M17.5684 3.29137H29.8793V25.412H17.5684V3.29137Z" fill="#FF5F00"/>
<g id="Group">
<path id="Vector_2" d="M9.24439 36.5462V34.2013C9.24439 33.3022 8.69712 32.7162 7.75907 32.7162C7.29013 32.7162 6.78203 32.8725 6.43023 33.3806C6.15678 32.9506 5.766 32.7162 5.17974 32.7162C4.78878 32.7162 4.39818 32.8333 4.08538 33.2633V32.7943H3.26465V36.5462H4.08538V34.4748C4.08538 33.8105 4.43717 33.4977 4.98444 33.4977C5.53135 33.4977 5.80516 33.8495 5.80516 34.4748V36.5462H6.62589V34.4748C6.62589 33.8105 7.01649 33.4977 7.5246 33.4977C8.07187 33.4977 8.34532 33.8495 8.34532 34.4748V36.5462H9.24439ZM21.3988 32.7943H20.0702V31.661H19.2494V32.7943H18.5069V33.5367H19.2492V35.2565C19.2492 36.1164 19.601 36.6243 20.5391 36.6243C20.8909 36.6243 21.2815 36.5072 21.5553 36.3509L21.3207 35.6473C21.0862 35.8036 20.8127 35.8428 20.6172 35.8428C20.2265 35.8428 20.0702 35.6083 20.0702 35.2173V33.5367H21.3988V32.7943ZM28.3556 32.716C27.8866 32.716 27.574 32.9506 27.3785 33.2633V32.7943H26.5578V36.5462H27.3785V34.4358C27.3785 33.8105 27.652 33.4587 28.1601 33.4587C28.3164 33.4587 28.5119 33.4979 28.6682 33.5369L28.9027 32.7553C28.7464 32.7162 28.5119 32.7162 28.3556 32.7162V32.716ZM17.8424 33.1069C17.4515 32.8333 16.9044 32.7162 16.3181 32.7162C15.3803 32.7162 14.755 33.1851 14.755 33.9277C14.755 34.5531 15.2239 34.9047 16.0447 35.022L16.4355 35.0612C16.8654 35.1392 17.0999 35.2565 17.0999 35.452C17.0999 35.7254 16.7872 35.9209 16.24 35.9209C15.6929 35.9209 15.2629 35.7254 14.9893 35.5301L14.5985 36.1554C15.0285 36.468 15.6147 36.6243 16.2008 36.6243C17.2952 36.6243 17.9206 36.1164 17.9206 35.4128C17.9206 34.7484 17.4125 34.3966 16.6308 34.2795L16.24 34.2403C15.8882 34.2011 15.6147 34.1231 15.6147 33.8887C15.6147 33.615 15.8882 33.4587 16.3181 33.4587C16.7872 33.4587 17.2562 33.654 17.4906 33.7714L17.8424 33.1069ZM39.6505 32.7162C39.1814 32.7162 38.8687 32.9506 38.6732 33.2633V32.7943H37.8525V36.5462H38.6732V34.4358C38.6732 33.8105 38.9469 33.4587 39.4548 33.4587C39.6113 33.4587 39.8068 33.4979 39.9631 33.5369L40.1976 32.7553C40.0412 32.7162 39.8068 32.7162 39.6505 32.7162ZM29.1763 34.6702C29.1763 35.8036 29.9579 36.6243 31.1696 36.6243C31.7166 36.6243 32.1074 36.5072 32.4982 36.1945L32.1074 35.5301C31.7948 35.7646 31.4822 35.8817 31.1304 35.8817C30.466 35.8817 29.997 35.4128 29.997 34.6702C29.997 33.9668 30.466 33.4977 31.1304 33.4587C31.4822 33.4587 31.7948 33.5759 32.1074 33.8105L32.4982 33.1461C32.1074 32.8333 31.7166 32.7162 31.1696 32.7162C29.9579 32.7162 29.1763 33.5369 29.1763 34.6702ZM36.7583 34.6702V32.7943H35.9376V33.2633C35.664 32.9116 35.2732 32.7162 34.7651 32.7162C33.7099 32.7162 32.8892 33.5369 32.8892 34.6702C32.8892 35.8036 33.7099 36.6243 34.7651 36.6243C35.3122 36.6243 35.7031 36.429 35.9376 36.0772V36.5462H36.7583V34.6702ZM33.7489 34.6702C33.7489 34.0058 34.1788 33.4587 34.8822 33.4587C35.5466 33.4587 36.0158 33.9668 36.0158 34.6702C36.0158 35.3347 35.5466 35.8817 34.8822 35.8817C34.1788 35.8426 33.7489 35.3347 33.7489 34.6702ZM23.9393 32.7162C22.845 32.7162 22.0632 33.4977 22.0632 34.6702C22.0632 35.8428 22.8448 36.6243 23.9783 36.6243C24.5254 36.6243 25.0727 36.468 25.5026 36.1164L25.1117 35.5301C24.799 35.7646 24.4083 35.9209 24.0175 35.9209C23.5094 35.9209 23.0013 35.6864 22.8839 35.0219H25.6589V34.7094C25.6981 33.4977 24.9945 32.7162 23.9391 32.7162H23.9393ZM23.9393 33.4196C24.4472 33.4196 24.7992 33.7324 24.8772 34.3186H22.9231C23.0013 33.8105 23.3531 33.4196 23.9393 33.4196ZM44.3012 34.6702V31.3092H43.4805V33.2633C43.2068 32.9116 42.8161 32.7162 42.3079 32.7162C41.2528 32.7162 40.432 33.5369 40.432 34.6702C40.432 35.8036 41.2528 36.6243 42.3079 36.6243C42.8552 36.6243 43.246 36.429 43.4805 36.0772V36.5462H44.3012V34.6702ZM41.2919 34.6702C41.2919 34.0058 41.7217 33.4587 42.4253 33.4587C43.0897 33.4587 43.5586 33.9668 43.5586 34.6702C43.5586 35.3347 43.0897 35.8817 42.4253 35.8817C41.7217 35.8426 41.2919 35.3347 41.2919 34.6702ZM13.8559 34.6702V32.7943H13.0352V33.2633C12.7616 32.9116 12.3708 32.7162 11.8627 32.7162C10.8075 32.7162 9.98678 33.5369 9.98678 34.6702C9.98678 35.8036 10.8075 36.6243 11.8627 36.6243C12.41 36.6243 12.8008 36.429 13.0352 36.0772V36.5462H13.8559V34.6702ZM10.8075 34.6702C10.8075 34.0058 11.2375 33.4587 11.9409 33.4587C12.6053 33.4587 13.0744 33.9668 13.0744 34.6702C13.0744 35.3347 12.6053 35.8817 11.9409 35.8817C11.2375 35.8426 10.8075 35.3347 10.8075 34.6702Z" fill="white"/>
<path id="Vector_3" d="M18.35 14.3518C18.35 9.85735 20.4604 5.87085 23.7042 3.29135C21.3203 1.41543 18.311 0.282074 15.0281 0.282074C7.25044 0.282074 0.958252 6.57426 0.958252 14.3518C0.958252 22.1291 7.25044 28.4215 15.0279 28.4215C18.3109 28.4215 21.3201 27.2881 23.7042 25.412C20.4604 22.8717 18.35 18.8462 18.35 14.3518Z" fill="#EB001B"/>
<path id="Vector_4" d="M46.4891 14.3517C46.4891 22.1291 40.1969 28.4214 32.4194 28.4214C29.1365 28.4214 26.1272 27.2881 23.7432 25.412C27.0261 22.8327 29.0975 18.8462 29.0975 14.3517C29.0975 9.85733 26.9869 5.87084 23.7432 3.29133C26.127 1.41541 29.1365 0.282059 32.4194 0.282059C40.1969 0.282059 46.4892 6.61341 46.4892 14.3517H46.4891Z" fill="#F79E1B"/>
</g>
</g>
</svg>
